<svg xmlns="http://www.w3.org/2000/svg" aria-hidden="true" viewBox="0 0 14 14" role="img"><path d="M12.8 8.4l-1.3-2.3v-.8C11.6 2.4 9.2 0 6.3 0S1.1 2.4 1.1 5.3c0 1.4.5 2.6 1.4 3.5v4.5c0 .4.3.7.7.7h5.3c.4 0 .7-.3.7-.7v-1h1.7c.4 0 .7-.3.7-.7V9h.9c.4 0 .5-.3.3-.6zM8.7 5.3v.4l.7.4c-.2.5-.4.9-.8 1.3L7.9 7c-.2.2-.5.3-.8.4v.8c-.2.1-.5.1-.8.1-.3 0-.5 0-.8-.1v-.8c-.2-.1-.5-.2-.7-.4l-.7.4c-.4-.4-.7-.8-.8-1.3l.7-.4v-.9l-.7-.4c.1-.5.4-1 .8-1.3l.7.4c.2-.2.5-.3.7-.4v-.8c.3-.1.5-.1.8-.1.3 0 .5 0 .8.1v.8c.3.1.5.2.8.4l.7-.4c.4.4.6.8.8 1.3l-.7.4v.5z"></path><circle cx="6.3" cy="5.3" r=".9"></circle></svg>